<?xml version="1.0" encoding="UTF-8" standalone="no"?>
<!-- Created with Inkscape (http://www.inkscape.org/) -->

<svg
   width="210mm"
   height="297mm"
   viewBox="0 0 210 297"
   version="1.1"
   id="svg1"
   xml:space="preserve"
   inkscape:version="1.3.2 (091e20e, 2023-11-25)"
   sodipodi:docname="VermontCounties.svg"
   xmlns:inkscape="http://www.inkscape.org/namespaces/inkscape"
   xmlns:sodipodi="http://sodipodi.sourceforge.net/DTD/sodipodi-0.dtd"
   xmlns="http://www.w3.org/2000/svg"
   xmlns:svg="http://www.w3.org/2000/svg"><sodipodi:namedview
     id="namedview1"
     pagecolor="#ffffff"
     bordercolor="#666666"
     borderopacity="1.0"
     inkscape:showpageshadow="2"
     inkscape:pageopacity="0.0"
     inkscape:pagecheckerboard="0"
     inkscape:deskcolor="#d1d1d1"
     inkscape:document-units="mm"
     inkscape:zoom="0.079002448"
     inkscape:cx="-765.79906"
     inkscape:cy="-1075.916"
     inkscape:window-width="1264"
     inkscape:window-height="860"
     inkscape:window-x="221"
     inkscape:window-y="33"
     inkscape:window-maximized="0"
     inkscape:current-layer="layer1" /><defs
     id="defs1" /><g
     inkscape:label="Layer 1"
     inkscape:groupmode="layer"
     id="layer1"><path
       style="fill:#444;fill-opacity:1;stroke:#00f700;stroke-width:0.79375;stroke-dasharray:none;stroke-opacity:1"
       d="M -543.82096,-385.99808 L -566.04596,-391.02022 L -602.38208,-410.1992 C -622.36694,-420.74764 -639.27381,-429.72435 -639.95291,-430.14744 C -640.9924,-430.79506 -642.01499,-432.4825 -646.42011,-440.81934 C -651.5473,-450.52273 -651.66351,-450.79162 -652.19543,-454.18319 L -652.73828,-457.6444 L -649.29701,-466.46385 L -645.85573,-475.28329 L -639.46518,-480.58322 L -633.07464,-485.88315 L -631.78675,-498.04572 L -630.49887,-510.20829 L -628.28935,-517.61663 L -626.07983,-525.02496 L -626.68119,-529.78464 C -627.01193,-532.40246 -627.39494,-534.63901 -627.53231,-534.75475 C -627.66968,-534.87049 -630.2427,-535.80271 -633.25013,-536.82635 C -636.25756,-537.84999 -638.90998,-538.86781 -639.14439,-539.08818 C -639.3788,-539.30855 -640.69133,-542.23391 -642.06111,-545.58899 L -644.55163,-551.68913 L -637.03551,-569.2251 L -629.51938,-586.76107 L -593.19656,-587.00793 C -573.21901,-587.14371 -523.85374,-587.50219 -483.49596,-587.80456 C -443.13819,-588.10693 -402.40098,-588.35303 -392.96884,-588.35144 L -375.8195,-588.34857 L -375.61478,-586.49649 C -375.50218,-585.47784 -373.55901,-563.73795 -371.29662,-538.18561 L -367.18318,-491.72682 L -375.7245,-478.037 C -380.42222,-470.5076 -384.44969,-464.1517 -384.67442,-463.91278 C -384.99242,-463.5747 -386.5622,-464.68742 -391.75383,-468.93096 C -396.75071,-473.0153 -398.6082,-474.34147 -399.15614,-474.21588 C -399.55846,-474.12366 -411.47638,-472.21083 -425.64041,-469.96514 C -439.80444,-467.71944 -451.5846,-465.69546 -451.81855,-465.4674 C -452.0525,-465.23933 -455.32447,-459.40686 -459.0896,-452.50635 L -465.9353,-439.95997 L -468.314,-427.10635 C -469.62229,-420.03686 -470.75733,-414.14608 -470.83631,-414.01571 C -470.9153,-413.88535 -475.64428,-416.06817 -481.34516,-418.86641 C -487.04603,-421.66465 -491.92589,-423.95259 -492.18929,-423.95072 C -492.46121,-423.94879 -496.02156,-417.50698 -500.42714,-409.04586 L -508.18609,-394.1444 L -514.70244,-387.52982 C -518.28643,-383.8918 -521.30366,-380.9289 -521.40738,-380.94559 C -521.5111,-380.96229 -531.59721,-383.23591 -543.82096,-385.99808 Z"
       id="path51" /><path
       style="fill:#444;fill-opacity:1;stroke:#00f700;stroke-width:0.79375;stroke-dasharray:none;stroke-opacity:1"
       d="M -281.48199,-342.71973 C -293.25867,-348.87443 -302.89945,-354.09232 -302.90594,-354.31505 C -302.91243,-354.53778 -302.52278,-355.41091 -302.04005,-356.25533 C -301.55732,-357.09975 -301.16044,-358.05627 -301.15811,-358.38092 C -301.15504,-358.80628 -305.66325,-361.25825 -317.29344,-367.15678 C -326.17021,-371.65884 -336.16678,-376.76084 -339.50804,-378.49455 L -345.58306,-381.64675 L -333.40381,-406.00323 C -326.70522,-419.3993 -321.27271,-430.59669 -321.33157,-430.88633 C -321.39213,-431.18434 -334.76171,-438.3031 -352.13024,-447.28535 C -369.01066,-456.01518 -382.94267,-463.2723 -383.09026,-463.41228 C -383.23786,-463.55226 -379.33713,-470.08653 -374.42198,-477.93288 L -365.48533,-492.19898 L -369.79026,-540.52953 C -372.15797,-567.11134 -374.02141,-588.93946 -373.93124,-589.03648 C -373.75453,-589.22659 -342.85871,-589.53344 -288.27747,-589.88716 C -220.83404,-590.32424 -159.51485,-590.77891 -139.31705,-590.99166 C -118.81363,-591.20763 -118.76774,-591.20651 -118.76774,-590.49014 C -118.76774,-590.09526 -120.91087,-577.14676 -123.53024,-561.7157 C -126.14962,-546.28464 -128.29274,-533.51584 -128.29274,-533.34059 C -128.29274,-533.16534 -123.6161,-529.24978 -117.9002,-524.63934 L -107.50766,-516.25673 L -109.72854,-513.57646 C -110.95003,-512.10232 -115.50391,-506.60995 -119.84828,-501.3712 C -127.16942,-492.54284 -146.28441,-467.06012 -146.28441,-466.12847 C -146.28441,-465.90303 -143.34271,-463.6678 -139.74729,-461.1613 C -136.15187,-458.65481 -133.27901,-456.42463 -133.36316,-456.20535 C -133.75299,-455.18947 -161.24654,-418.47312 -161.59143,-418.50782 C -161.80681,-418.52949 -170.62632,-424.6245 -181.19035,-432.05229 C -191.75438,-439.48008 -200.64438,-445.57422 -200.94591,-445.59484 C -201.3076,-445.61956 -201.45278,-445.39225 -201.3726,-444.92675 C -201.30576,-444.5387 -199.19531,-436.62144 -196.68271,-427.33286 C -194.1701,-418.04427 -192.1839,-410.37495 -192.26892,-410.28993 C -192.35394,-410.20492 -197.28944,-412.46608 -203.2367,-415.31474 C -209.18396,-418.16341 -214.10461,-420.43522 -214.17147,-420.36322 C -214.23833,-420.29122 -220.00874,-408.80231 -226.99459,-394.83231 C -237.63301,-373.55809 -258.9006,-332.69862 -259.80769,-331.79153 C -259.95188,-331.64734 -269.70531,-336.56503 -281.48199,-342.71973 Z"
       id="path50" /><path
       style="fill:#444;fill-opacity:1;stroke:#00f700;stroke-width:0.79375;stroke-dasharray:none;stroke-opacity:1"
       d="M -697.68556,-345.64608 C -698.60359,-347.64757 -699.10895,-349.99646 -700.85435,-360.37456 L -702.93091,-372.72178 L -702.72594,-382.07039 L -702.52096,-391.419 L -699.41057,-402.24063 L -696.30018,-413.06225 L -695.54342,-422.17257 L -694.78667,-431.28289 L -691.1074,-446.83088 L -687.42813,-462.37886 L -687.43655,-467.1156 C -687.44118,-469.7208 -687.58187,-472.44169 -687.74919,-473.16203 C -687.91652,-473.88236 -691.27983,-479.67673 -695.22323,-486.03841 L -702.39304,-497.60511 L -702.28513,-506.24817 L -702.17722,-514.89122 L -696.95453,-525.65094 L -691.73184,-536.41067 L -689.52756,-548.05233 L -687.32328,-559.694 L -688.43067,-564.28011 C -689.03973,-566.80247 -689.94183,-571.4856 -690.43533,-574.68706 C -690.92883,-577.88851 -691.64472,-581.6606 -692.0262,-583.06946 C -693.21226,-587.44976 -694.05769,-587.03428 -683.95848,-587.03428 C -679.13975,-587.03428 -665.88412,-587.13966 -654.50153,-587.26847 C -636.63805,-587.47062 -633.80591,-587.43331 -633.80591,-586.99587 C -633.80591,-586.71714 -637.12398,-578.7541 -641.1794,-569.30024 L -648.55288,-552.11139 L -645.85117,-545.50457 L -643.14946,-538.89775 L -637.41545,-536.91535 C -634.26175,-535.82503 -631.58986,-534.84137 -631.47792,-534.72944 C -631.19993,-534.45144 -630.29347,-527.93233 -630.28499,-526.15003 C -630.28122,-525.35738 -631.23604,-521.54738 -632.40681,-517.68336 L -634.53548,-510.65789 L -635.7582,-499.1997 C -636.43069,-492.8977 -636.98091,-487.48406 -636.98091,-487.1694 C -636.98091,-486.85473 -639.86189,-484.20148 -643.38308,-481.27329 L -649.78525,-475.9493 L -653.28593,-467.02165 L -656.78662,-458.094 L -656.22011,-454.59654 C -655.66387,-451.16242 -655.55641,-450.91645 -650.28601,-441.0146 L -644.91841,-430.93011 L -644.71576,-421.40511 C -644.53121,-412.73068 -644.60205,-410.93504 -645.50908,-401.29678 C -646.05686,-395.47594 -646.50524,-390.60154 -646.50548,-390.46476 C -646.50572,-390.32799 -648.1331,-389.07412 -650.12188,-387.67838 C -652.11067,-386.28265 -653.89658,-384.99758 -654.09059,-384.82267 C -654.29914,-384.63464 -654.51543,-380.79877 -654.61975,-375.43821 L -654.79619,-366.37178 L -656.91286,-362.58127 L -659.02952,-358.79076 L -664.59423,-354.87072 L -670.15895,-350.95069 L -682.93868,-347.11189 C -689.96753,-345.00055 -695.91527,-343.27123 -696.15587,-343.26896 C -696.39647,-343.26669 -697.08483,-344.3364 -697.68556,-345.64608 Z"
       id="path49" /><path
       style="fill:#444;fill-opacity:1;stroke:#00f700;stroke-width:0.79375;stroke-dasharray:none;stroke-opacity:1"
       d="M -107.72559,-251.32296 C -117.23295,-263.35161 -125.27896,-273.55374 -125.6056,-273.99436 L -126.1995,-274.79549 L -120.476,-278.2881 L -114.7525,-281.78072 L -105.77098,-293.18902 C -100.83115,-299.46358 -96.739121,-304.82515 -96.677571,-305.10362 C -96.616031,-305.38209 -100.95758,-311.75457 -106.32548,-319.26469 C -111.69338,-326.77481 -116.14426,-333.09016 -116.21632,-333.29882 C -116.28839,-333.50747 -110.57735,-341.53465 -103.52511,-351.137 C -96.472881,-360.73936 -90.767611,-368.75623 -90.846731,-368.95228 C -90.925841,-369.14833 -96.859391,-373.65595 -104.03239,-378.96922 C -111.20539,-384.28249 -117.0742,-388.70688 -117.0742,-388.8012 C -117.0742,-388.89553 -110.77434,-397.40706 -103.07451,-407.71572 C -95.374681,-418.02438 -89.064371,-426.76104 -89.051591,-427.13052 C -89.034581,-427.62249 -94.032681,-431.43033 -107.72559,-441.35743 C -118.00906,-448.81276 -129.95898,-457.39467 -134.28095,-460.42835 C -138.60293,-463.46203 -142.07444,-466.1126 -141.99543,-466.31852 C -141.91641,-466.52444 -137.72942,-472.33571 -132.691,-479.23247 C -126.61219,-487.55335 -120.18446,-495.78974 -113.58526,-503.71426 C -107.99136,-510.43158 -103.68717,-515.9 -103.74746,-516.21305 C -103.80641,-516.51915 -108.45463,-520.48014 -114.07684,-525.01525 C -123.27668,-532.43622 -124.28704,-533.35358 -124.17922,-534.18759 C -123.9238,-536.16329 -114.62514,-590.7734 -114.5296,-590.85887 C -114.47392,-590.90868 -85.694611,-591.12436 -50.575591,-591.33815 C -15.456561,-591.55195 19.190629,-591.82015 26.418164,-591.93415 C 33.645699,-592.04816 39.552337,-592.01033 39.544027,-591.85008 C 39.535717,-591.68984 37.575073,-590.10601 35.187042,-588.33046 C 30.162996,-584.59498 30.726077,-585.93225 29.996437,-576.00325 L 29.553282,-569.97276 L 30.918511,-563.65602 L 32.283741,-557.33929 L 36.632774,-548.5992 L 40.981807,-539.85912 L 39.197921,-533.28487 C 38.216784,-529.66904 37.311499,-526.53771 37.186177,-526.32635 C 37.060855,-526.115 29.070341,-514.51207 19.429479,-500.54207 L 1.9006388,-475.14207 L -3.2126512,-464.91152 L -8.3259412,-454.68096 L -9.0821312,-448.33096 C -9.4980412,-444.83846 -9.8364012,-441.51699 -9.8340412,-440.94992 C -9.8312312,-440.27538 -8.2044412,-437.09826 -5.1291712,-431.76135 L -0.42858123,-423.60383 L 1.7672188,-414.80073 C 3.7280588,-406.93966 4.6039188,-404.28662 9.9520238,-390.00856 C 15.838327,-374.29364 16.007641,-373.90422 19.826652,-367.29697 L 23.712288,-360.57445 L 21.922893,-355.20557 L 20.133499,-349.83669 L 13.530345,-348.14702 C 9.8986108,-347.2177 6.8181218,-346.36016 6.6848148,-346.24138 C 6.5515078,-346.12259 5.7882288,-343.65098 4.9886388,-340.74891 L 3.5348488,-335.47241 L 3.9543088,-325.7225 L 4.3737688,-315.97259 L 0.66767877,-310.96337 C -2.8432512,-306.21792 -3.3972312,-305.65309 -9.8526112,-300.237 L -16.666811,-294.51985 L -21.692231,-286.27265 L -26.717651,-278.02545 L -32.120231,-275.6749 C -36.879851,-273.60409 -39.559031,-272.02902 -54.632531,-262.44009 L -71.742251,-251.55582 L -80.914471,-240.50313 C -85.959201,-234.42416 -90.166071,-229.45095 -90.263091,-229.45157 C -90.360101,-229.45218 -98.218221,-239.29431 -107.72559,-251.32296 Z"
       id="path48" /><path
       style="fill:#444;fill-opacity:1;stroke:#00f700;stroke-width:0.79375;stroke-dasharray:none;stroke-opacity:1"
       d="M -436.55005,-264.16288 L -458.06949,-276.11984 L -469.18199,-279.80678 C -475.29387,-281.83459 -481.5248,-283.8506 -483.02852,-284.28678 C -484.53223,-284.72297 -485.76255,-285.23501 -485.76255,-285.42464 C -485.76255,-285.61427 -482.82567,-291.40212 -479.23616,-298.28651 C -475.64664,-305.1709 -472.70977,-310.9086 -472.70977,-311.03694 C -472.70977,-311.16528 -475.01164,-312.41799 -477.82505,-313.82074 C -480.63845,-315.22349 -482.94032,-316.52962 -482.94032,-316.72326 C -482.94032,-316.9169 -481.11056,-320.84044 -478.87418,-325.44224 C -476.63779,-330.04404 -474.87151,-333.97412 -474.9491,-334.17575 C -475.02668,-334.37738 -476.23129,-334.83567 -477.626,-335.19418 C -479.0207,-335.55269 -480.69986,-335.99457 -481.35746,-336.17615 C -482.41727,-336.46877 -484.36432,-338.95956 -498.49704,-358.10209 C -507.26622,-369.97979 -514.61616,-379.81304 -514.83024,-379.95377 C -515.04433,-380.0945 -516.05293,-380.39757 -517.07157,-380.62727 C -518.34859,-380.91523 -518.92366,-381.21805 -518.92366,-381.60255 C -518.92366,-381.90925 -516.16304,-384.93993 -512.78894,-388.33738 L -506.65423,-394.51457 L -498.9962,-409.24304 C -494.78428,-417.3437 -491.13787,-423.97151 -490.89305,-423.97151 C -490.64824,-423.97151 -485.78216,-421.689 -480.07955,-418.89926 C -474.37693,-416.10951 -469.57337,-413.95337 -469.40496,-414.10782 C -469.23654,-414.26227 -467.9963,-420.3151 -466.64885,-427.55855 L -464.19894,-440.72846 L -457.32594,-453.30399 C -450.7866,-465.26903 -450.39806,-465.88953 -449.32233,-466.08571 C -448.70049,-466.19911 -437.15859,-468.04252 -423.67366,-470.18217 C -410.18873,-472.32181 -398.74526,-474.1572 -398.24373,-474.26082 C -397.46829,-474.42102 -396.32223,-473.61562 -390.58365,-468.87772 L -383.83544,-463.30624 L -352.92002,-447.28193 C -335.91655,-438.46856 -321.93292,-431.0708 -321.8453,-430.84246 C -321.75768,-430.61412 -327.09567,-419.49614 -333.7075,-406.13584 C -340.31933,-392.77554 -345.66348,-381.67893 -345.58339,-381.4767 C -345.5033,-381.27447 -335.58148,-376.10839 -323.5349,-369.99651 C -308.16951,-362.20083 -301.62912,-358.71209 -301.62229,-358.30802 C -301.61693,-357.99122 -307.42362,-347.03747 -314.52604,-333.96635 C -321.91878,-320.36093 -331.9364,-301.22696 -337.95808,-289.2104 C -343.74328,-277.66575 -348.69691,-267.92657 -348.96614,-267.56777 C -349.44069,-266.93535 -349.53478,-266.93898 -352.04506,-267.68658 C -354.51332,-268.42166 -355.48618,-269.10779 -372.83809,-282.35122 C -387.49403,-293.53702 -391.11481,-296.14807 -391.41678,-295.74887 C -391.62307,-295.47615 -396.70216,-285.55906 -402.70365,-273.71088 C -411.746,-255.85943 -413.73668,-252.17192 -414.32303,-252.18733 C -414.71219,-252.19756 -424.71435,-257.58656 -436.55005,-264.16288 Z"
       id="path47" /><path
       style="fill:#444;fill-opacity:1;stroke:#00f700;stroke-width:0.79375;stroke-dasharray:none;stroke-opacity:1"
       d="M -197.76781,-128.54806 L -221.24069,-138.37107 L -247.75573,-135.93613 L -274.27078,-133.50119 L -286.28355,-139.03616 C -292.89058,-142.08039 -298.29633,-144.71466 -298.29633,-144.89008 C -298.29633,-145.06551 -293.7148,-153.64367 -288.11517,-163.95267 L -277.93401,-182.69629 L -278.36099,-189.57546 L -278.78798,-196.45462 L -275.52519,-200.51157 C -273.73065,-202.74289 -269.57882,-207.86606 -266.29889,-211.89641 L -260.33539,-219.2243 L -249.87534,-238.53113 C -244.12232,-249.14988 -239.32425,-258.08268 -239.21296,-258.38178 C -239.10167,-258.68088 -239.6325,-260.58588 -240.39258,-262.61511 L -241.77455,-266.30462 L -248.4278,-269.91788 C -252.08708,-271.90517 -270.59677,-281.90642 -289.56044,-292.14288 C -314.32463,-305.51042 -324.04114,-310.9231 -324.04447,-311.35255 C -324.05167,-312.2815 -301.5857,-353.4271 -301.00568,-353.54724 C -300.72287,-353.60582 -290.75668,-348.56714 -278.8586,-342.35018 C -266.96051,-336.13322 -257.1236,-331.16405 -256.99879,-331.30757 C -256.06673,-332.37937 -233.95623,-375.02755 -223.89688,-395.15671 C -217.08519,-408.78716 -211.37864,-419.93935 -211.21566,-419.93935 C -211.05267,-419.93935 -206.01258,-417.55751 -200.01546,-414.64638 C -192.81482,-411.15104 -189.07754,-409.50929 -189.01131,-409.81237 C -188.95616,-410.06479 -190.90084,-417.62438 -193.33284,-426.61147 C -195.76484,-435.59855 -197.75466,-443.25073 -197.75466,-443.61632 C -197.75466,-443.987 -197.50805,-444.28101 -197.19714,-444.28101 C -196.8905,-444.28101 -188.14283,-438.31256 -177.75787,-431.01778 C -167.37291,-423.72301 -158.74764,-417.88894 -158.5906,-418.0532 C -158.43356,-418.21745 -152.01873,-426.84497 -144.33541,-437.22546 C -136.65209,-447.60594 -130.16157,-456.14422 -129.91203,-456.1994 C -129.18877,-456.35935 -90.330387,-428.06336 -90.355347,-427.39492 C -90.367187,-427.0779 -94.403857,-421.42101 -99.325717,-414.82407 C -116.28538,-392.09246 -118.37962,-389.25061 -118.36721,-388.98499 C -118.36037,-388.83843 -112.47389,-384.37045 -105.28615,-379.05615 C -95.432167,-371.77056 -92.256337,-369.24539 -92.375297,-368.79047 C -92.462067,-368.45865 -98.198297,-360.46498 -105.12246,-351.02676 C -113.74738,-339.27028 -117.62259,-333.71631 -117.42839,-333.38984 C -117.27249,-333.12775 -112.819,-326.88301 -107.53174,-319.51263 C -102.24449,-312.14226 -97.921237,-305.88655 -97.924527,-305.61106 C -97.927817,-305.33558 -101.86478,-300.10955 -106.67333,-293.99768 C -116.16714,-281.93062 -115.43016,-282.64204 -123.21609,-278.02889 C -125.58509,-276.62527 -127.52653,-275.39747 -127.53042,-275.30046 C -127.5343,-275.20344 -119.44447,-264.90505 -109.55301,-252.41513 C -94.129637,-232.94009 -90.956057,-228.73379 -91.685837,-228.73379 C -91.750347,-228.73379 -95.411157,-227.31519 -99.820967,-225.58135 L -107.83881,-222.42892 L -117.60715,-222.80916 L -127.37549,-223.18941 L -137.18689,-221.20939 L -146.99828,-219.22938 L -154.37293,-213.31006 L -161.74758,-207.39073 L -166.35132,-197.29224 L -170.95507,-187.19374 L -172.39063,-173.65612 L -173.82619,-160.11851 L -173.62731,-139.39282 C -173.47124,-123.12802 -173.52168,-118.67336 -173.86168,-118.69609 C -174.09997,-118.71202 -184.85773,-123.14541 -197.76781,-128.54806 Z"
       id="path46" /><path
       style="fill:#444;fill-opacity:1;stroke:#00f700;stroke-width:0.79375;stroke-dasharray:none;stroke-opacity:1"
       d="M -693.6234,99.881229 C -693.68355,99.781478 -694.00554,94.461113 -694.33894,88.058197 L -694.94512,76.41653 L -696.18283,73.947086 C -696.86357,72.588891 -698.4391,69.621168 -699.68399,67.352146 L -701.94743,63.22665 L -701.0465,52.35909 C -700.55098,46.381932 -699.98981,39.636374 -699.79946,37.36896 L -699.45335,33.24639 L -703.53595,22.905071 L -707.61855,12.563752 L -709.40237,1.6276421 L -711.18619,-9.3084679 L -711.43439,-23.066808 L -711.68259,-36.825138 L -712.88646,-41.411248 C -714.03533,-45.787868 -714.28242,-46.324958 -718.29569,-53.169088 L -722.50102,-60.340818 L -720.82546,-65.516308 C -719.90388,-68.362828 -715.56622,-81.645558 -711.18623,-95.033468 L -703.22261,-119.37514 L -701.91709,-129.25292 L -700.61158,-139.13069 L -698.86861,-143.00991 C -696.89486,-147.40277 -698.15161,-146.19502 -685.82509,-155.54488 L -679.78485,-160.12648 L -679.06855,-163.21053 C -678.67458,-164.90676 -677.58834,-169.66802 -676.65468,-173.79111 C -675.55924,-178.62863 -674.80132,-181.28764 -674.51786,-181.28764 C -674.27627,-181.28764 -672.28624,-180.51245 -670.09557,-179.565 C -667.90491,-178.61755 -663.93784,-176.93263 -661.27987,-175.82073 L -656.44719,-173.79909 L -642.22987,-175.64078 C -631.0714,-177.08622 -623.38263,-178.35228 -606.4931,-181.52533 L -584.97365,-185.56821 L -570.75414,-186.74072 C -562.93341,-187.3856 -556.45961,-187.98825 -556.36793,-188.07994 C -556.27624,-188.17163 -556.44408,-190.20831 -556.74091,-192.60591 C -557.03774,-195.00351 -557.2806,-197.08899 -557.2806,-197.2403 C -557.2806,-197.39161 -556.68528,-197.51513 -555.95768,-197.51478 C -554.61802,-197.51414 -541.37034,-195.85778 -541.23938,-195.67455 C -541.2003,-195.61987 -540.1181,-187.39951 -538.83448,-177.40708 C -532.54943,-128.48063 -531.43225,-120.05993 -531.19179,-119.80046 C -531.04895,-119.64633 -529.51831,-119.74867 -527.79036,-120.02787 C -526.06242,-120.30707 -524.55519,-120.43318 -524.44097,-120.3081 C -524.32674,-120.18303 -522.7032,-109.05916 -520.83311,-95.588388 C -518.96301,-82.117618 -517.29906,-70.962218 -517.13545,-70.798598 C -516.97183,-70.634978 -515.09004,-70.744908 -512.95369,-71.042878 L -509.06941,-71.584638 L -493.92848,-65.547088 C -485.60096,-62.226428 -472.19942,-56.893978 -464.14726,-53.697198 C -456.09511,-50.500418 -449.3687,-47.750518 -449.19969,-47.586318 C -449.02722,-47.418748 -450.12861,-44.915278 -451.71014,-41.880068 C -453.2599,-38.905828 -456.01065,-33.614858 -457.82292,-30.122358 C -467.59789,-11.284628 -467.69105,-11.124238 -473.28585,-3.4992279 C -479.3188,4.7229421 -477.31953,0.86562215 -490.94967,30.580607 C -493.62602,36.415294 -496.11191,41.757574 -496.47387,42.452339 L -497.13199,43.715549 L -498.41165,43.20042 C -499.9449,42.583213 -499.88981,42.917813 -500.54343,30.252588 C -500.8391,24.523305 -501.10918,21.785449 -501.38928,21.677964 C -501.6156,21.591117 -508.38363,24.862704 -516.42933,28.948156 C -524.47504,33.033609 -531.28269,36.374876 -531.55744,36.373194 C -531.83219,36.371512 -534.193,35.498387 -536.80367,34.432916 C -541.21976,32.630622 -542.46393,32.241843 -542.46393,32.664193 C -542.46393,32.847614 -537.2112,51.503983 -535.17218,58.56267 C -533.96678,62.735506 -533.93901,62.951564 -534.56005,63.32517 C -536.46105,64.468775 -555.74801,74.471205 -556.05661,74.473522 C -556.25654,74.475024 -557.44716,69.610558 -558.70244,63.663599 C -559.95772,57.71664 -561.14351,52.634068 -561.33754,52.368994 C -561.63445,51.963368 -565.68501,52.081038 -586.91393,53.111994 C -609.91678,54.229099 -613.17804,54.464858 -623.9556,55.789769 C -630.45553,56.588821 -635.9079,57.372976 -636.07198,57.532336 C -636.34351,57.796052 -633.3818,82.045289 -632.25749,88.763752 C -631.99773,90.315974 -631.67483,92.578162 -631.53993,93.790836 L -631.29465,95.995697 H -633.72526 C -635.06209,95.995697 -648.37299,96.864971 -663.30503,97.927417 C -678.23708,98.989863 -691.14267,99.904915 -691.98413,99.960866 C -692.82558,100.01682 -693.56325,99.98098 -693.6234,99.881229 Z"
       id="path45" /><path
       style="fill:#444;fill-opacity:1;stroke:#00f700;stroke-width:0.79375;stroke-dasharray:none;stroke-opacity:1"
       d="M -266.91629,78.187788 L -288.43574,69.392303 L -312.07185,61.773169 L -335.70796,54.154036 L -363.57741,42.226594 C -395.14147,28.717944 -422.12858,18.274179 -448.31203,9.4350619 L -463.19665,4.4102489 L -463.53556,2.7764929 C -463.72197,1.8779269 -464.47172,-2.1987951 -465.20168,-6.2828901 L -466.52888,-13.708517 L -457.0337,-31.942896 C -451.18134,-43.181668 -447.34267,-50.179028 -447.02804,-50.181848 C -446.74727,-50.184368 -441.53964,-48.263538 -435.45553,-45.913338 C -429.37141,-43.563138 -424.33653,-41.697818 -424.26691,-41.768198 C -424.19728,-41.838568 -419.99221,-51.023108 -414.9223,-62.178268 C -409.85239,-73.333428 -405.55707,-82.607598 -405.37713,-82.787538 C -405.17612,-82.988548 -404.50117,-82.933558 -403.62652,-82.644908 C -402.84362,-82.386518 -402.10483,-82.273358 -401.98477,-82.393418 C -401.8647,-82.513488 -398.48827,-91.389378 -394.48159,-102.11763 L -387.1967,-121.62353 L -382.26622,-122.39593 C -379.55446,-122.82075 -376.70166,-123.17802 -375.92667,-123.18988 C -374.86614,-123.2061 -369.03545,-120.97929 -352.35423,-114.18727 C -340.16437,-109.22398 -330.00345,-105.23539 -329.7744,-105.32373 C -329.52565,-105.41968 -327.51521,-115.38201 -324.78164,-130.06436 C -322.26466,-143.58336 -320.09645,-154.8205 -319.9634,-155.03578 C -319.80508,-155.29194 -314.86418,-153.16337 -305.66611,-148.87641 C -297.93566,-145.27346 -287.9327,-140.63623 -283.43731,-138.57145 L -275.26389,-134.81731 L -249.92342,-137.13064 C -235.98617,-138.40297 -223.9135,-139.4429 -223.09527,-139.44159 C -221.94972,-139.43976 -216.21018,-137.18784 -198.13815,-129.64963 L -174.66872,-119.86004 L -174.66681,-116.42137 C -174.66576,-114.5301 -175.22431,-108.1801 -175.90803,-102.31026 L -177.15115,-91.637818 L -180.00833,-82.994768 L -182.86551,-74.351708 L -191.13966,-58.900148 C -198.61988,-44.931208 -199.52889,-43.048858 -200.61314,-39.282708 L -201.81248,-35.11683 L -198.46925,-27.794848 C -196.63047,-23.767758 -195.12601,-20.185488 -195.12601,-19.834247 C -195.12601,-19.483007 -200.93881,-10.888872 -208.04334,-0.73616813 C -219.37169,15.452572 -221.30467,18.409996 -223.75715,23.305743 L -226.55363,28.888193 L -228.28197,40.944632 C -229.65867,50.54814 -230.52428,55.190178 -232.53652,63.760792 C -235.00425,74.27146 -235.11501,74.622586 -237.32159,78.930237 C -239.15464,82.508703 -239.96241,83.688966 -241.6067,85.191405 C -242.9772,86.44367 -243.91838,87.033211 -244.5149,87.013062 C -244.99997,86.996678 -255.0806,83.025304 -266.91629,78.187788 Z"
       id="path44" /><path
       style="fill:#444;fill-opacity:1;stroke:#00f700;stroke-width:0.79375;stroke-dasharray:none;stroke-opacity:1"
       d="M -534.36982,-123.6271 C -534.45577,-123.89741 -536.6249,-140.46982 -539.1901,-160.45468 C -541.7553,-180.43954 -543.9509,-196.89954 -544.06922,-197.03246 C -544.35311,-197.3514 -560.658,-199.52381 -561.20177,-199.31515 C -561.52244,-199.1921 -561.48058,-198.03338 -561.02583,-194.44446 C -560.69765,-191.85439 -560.47857,-189.67801 -560.53899,-189.60807 C -560.59941,-189.53813 -566.5712,-189.01489 -573.80964,-188.44533 L -586.97044,-187.40975 L -608.84266,-183.31272 C -620.87238,-181.05935 -631.11176,-179.15956 -631.59683,-179.09096 C -632.0819,-179.02236 -638.63221,-178.17357 -646.15308,-177.20476 L -659.82739,-175.44328 L -668.90725,-179.27821 L -677.9871,-183.11313 L -678.36474,-191.71585 L -678.74238,-200.31857 L -681.45155,-211.89977 C -684.08568,-223.16021 -684.16072,-223.60627 -684.16072,-228.00494 V -232.52891 L -679.26611,-242.88207 C -674.77089,-252.39045 -674.19081,-253.85412 -672.15698,-260.81996 L -669.94245,-268.40468 L -669.48784,-279.51718 L -669.03324,-290.62968 L -672.15977,-299.12606 C -675.24261,-307.50371 -675.36733,-307.76008 -681.08351,-317.47051 C -690.90541,-334.15556 -691.96544,-336.03679 -693.37967,-339.29243 C -694.13331,-341.02736 -694.62954,-342.55583 -694.48241,-342.68902 C -694.33527,-342.82221 -688.50818,-344.63052 -681.53332,-346.70747 L -668.85176,-350.48376 L -663.2632,-354.41962 L -657.67465,-358.35548 L -655.32623,-362.39965 L -652.97781,-366.44382 L -652.82638,-375.50782 L -652.67496,-384.57183 L -649.08224,-387.04894 C -647.10625,-388.41134 -645.32087,-389.73749 -645.11473,-389.99592 C -644.90859,-390.25435 -644.309,-394.91079 -643.7823,-400.34357 C -642.94333,-408.9974 -642.83938,-411.43439 -642.94339,-420.01115 C -643.00868,-425.39555 -642.9305,-429.80086 -642.76966,-429.80074 C -642.60881,-429.80061 -641.33881,-429.19124 -639.94744,-428.44656 C -638.55606,-427.70189 -621.85542,-418.89417 -602.83491,-408.87385 L -568.25216,-390.65509 L -545.50852,-385.55972 C -532.99952,-382.75727 -521.73301,-380.19907 -520.47183,-379.87484 L -518.17877,-379.28533 L -503.3621,-359.1563 C -495.21294,-348.08533 -487.97745,-338.29781 -487.28323,-337.40625 C -486.09886,-335.8852 -485.82035,-335.73143 -482.7668,-334.91267 C -480.97698,-334.43276 -479.33897,-333.93281 -479.12679,-333.80167 C -478.87824,-333.64806 -480.20257,-330.5858 -482.84947,-325.19369 C -485.10913,-320.59044 -486.95794,-316.64285 -486.95794,-316.42127 C -486.95794,-316.19969 -484.64158,-314.86348 -481.81048,-313.45191 C -477.60045,-311.35281 -476.70468,-310.77562 -476.89178,-310.28255 C -477.0176,-309.95097 -479.96896,-304.23239 -483.45035,-297.57459 C -486.93175,-290.91679 -489.78016,-285.25379 -489.78016,-284.99014 C -489.78016,-284.7265 -489.26422,-284.34927 -488.63363,-284.15187 C -488.00304,-283.95447 -485.13968,-283.05881 -482.27061,-282.16153 L -477.05411,-280.5301 L -483.59352,-267.61612 C -487.1902,-260.51343 -490.12974,-254.45146 -490.12582,-254.14508 C -490.12118,-253.78127 -487.85729,-252.42536 -483.60011,-250.23662 C -480.01488,-248.39336 -477.08121,-246.81255 -477.08084,-246.72372 C -477.0798,-246.4767 -484.55107,-230.69292 -484.80511,-230.40543 C -484.9276,-230.26682 -487.59566,-230.9171 -490.73413,-231.8505 C -493.8726,-232.78389 -496.58386,-233.45293 -496.75915,-233.33724 C -497.11219,-233.10425 -518.70794,-187.72516 -518.70794,-187.21632 C -518.70794,-187.04082 -517.35936,-186.18641 -515.7111,-185.31762 C -514.06284,-184.44884 -512.78148,-183.55621 -512.86363,-183.334 C -512.94577,-183.11179 -517.7241,-169.53866 -523.48214,-153.1715 C -529.24017,-136.80433 -534.01029,-123.3506 -534.08242,-123.27433 C -534.15454,-123.19805 -534.28387,-123.3568 -534.36982,-123.6271 Z"
       id="path43" /><path
       style="fill:#444;fill-opacity:1;stroke:#00f700;stroke-width:0.79375;stroke-dasharray:none;stroke-opacity:1"
       d="M -440.08081,-45.451903 C -447.16283,-48.212753 -465.86225,-55.613443 -481.63508,-61.897883 L -510.31296,-73.324123 L -514.02501,-72.870443 C -516.06664,-72.620923 -517.79526,-72.474983 -517.8664,-72.546123 C -517.93754,-72.617263 -519.53189,-83.706373 -521.4094,-97.188593 C -523.28692,-110.67082 -524.95866,-121.84639 -525.12438,-122.0232 C -525.30533,-122.21625 -526.58218,-122.18113 -528.32066,-121.93528 C -529.91288,-121.71011 -531.27902,-121.58929 -531.35652,-121.66679 C -531.43402,-121.74429 -526.58601,-135.75386 -520.58317,-152.79916 C -514.58032,-169.84446 -509.73372,-183.96014 -509.81294,-184.16734 C -509.89216,-184.37453 -511.23015,-185.16479 -512.78623,-185.92347 C -514.80735,-186.90888 -515.56936,-187.45625 -515.45402,-187.83981 C -515.31336,-188.30753 -494.43838,-232.33793 -494.25319,-232.55748 C -494.21444,-232.60342 -491.57449,-231.86298 -488.38664,-230.91205 C -484.01367,-229.60762 -482.49586,-229.28394 -482.20496,-229.5938 C -481.70881,-230.12228 -473.94748,-246.46921 -473.94748,-246.98571 C -473.94748,-247.20015 -476.76529,-248.83679 -480.20928,-250.6227 C -483.65328,-252.4086 -486.61606,-254.01083 -486.79324,-254.18319 C -486.98553,-254.37025 -484.51149,-259.65675 -480.65572,-267.29777 C -477.1029,-274.33842 -474.16883,-280.13639 -474.13556,-280.18215 C -474.10229,-280.2279 -470.82533,-279.17933 -466.85343,-277.85198 L -459.63179,-275.43861 L -437.47508,-263.192 C -425.2889,-256.45636 -415.13524,-251.01936 -414.9114,-251.10977 C -414.68756,-251.20018 -409.51179,-261.13583 -403.40969,-273.189 C -397.30759,-285.24217 -392.19097,-295.0615 -392.03941,-295.00973 C -391.88786,-294.95797 -383.69804,-288.78075 -373.83982,-281.28258 C -356.82298,-268.33956 -355.78534,-267.6107 -353.33845,-266.88199 C -351.92091,-266.45983 -350.54144,-266.19872 -350.27296,-266.30174 C -350.00448,-266.40477 -344.92208,-276.21879 -338.97874,-288.11067 C -333.0354,-300.00256 -328.11584,-309.79333 -328.0464,-309.86794 C -327.83448,-310.09563 -246.61972,-266.13388 -246.05303,-265.48473 C -245.76199,-265.15133 -244.98626,-263.42862 -244.32919,-261.65647 L -243.13451,-258.43438 L -253.6778,-238.93647 L -264.22109,-219.43856 L -273.41528,-208.12626 C -278.47208,-201.90449 -282.69775,-196.66183 -282.80566,-196.4759 C -282.91357,-196.28997 -282.81227,-193.04221 -282.58055,-189.25867 L -282.15923,-182.37951 L -292.24016,-163.77674 C -297.78467,-153.54522 -302.43593,-145.17115 -302.5763,-145.16771 C -302.71667,-145.16427 -307.0752,-147.14583 -312.26194,-149.57117 C -320.81547,-153.57086 -322.95859,-154.41076 -322.95859,-153.76325 C -322.95859,-153.2742 -332.20885,-104.05288 -332.32306,-103.93421 C -332.39115,-103.86347 -342.58277,-107.93319 -354.9711,-112.97803 L -377.49534,-122.15048 L -383.56125,-121.19436 C -386.8975,-120.6685 -389.71559,-120.14982 -389.82366,-120.04175 C -389.93174,-119.93367 -393.27895,-111.13604 -397.26192,-100.49146 C -401.24488,-89.846883 -404.56932,-81.072023 -404.64956,-80.991783 C -404.7298,-80.911543 -405.41479,-81.089183 -406.17177,-81.386533 C -406.92875,-81.683883 -407.6949,-81.827693 -407.87432,-81.706113 C -408.05374,-81.584533 -412.38977,-72.237873 -417.50992,-60.935763 C -422.63008,-49.633643 -426.90595,-40.396743 -427.01186,-40.409313 C -427.11777,-40.421883 -432.9988,-42.691053 -440.08081,-45.451903 Z"
       id="path42" /><path
       style="fill:#444;fill-opacity:1;stroke:#00f700;stroke-width:0.79375;stroke-dasharray:none;stroke-opacity:1"
       d="M -534.36145,347.14867 C -557.88642,345.98864 -571.61988,345.46478 -578.81145,345.45315 L -589.21839,345.43631 L -620.26284,341.34241 C -637.33728,339.09077 -651.32885,337.22373 -651.35515,337.19344 C -651.38155,337.16315 -650.87105,310.86525 -650.22085,278.75365 C -649.57065,246.64205 -649.03315,218.68115 -649.02645,216.61832 L -649.01425,212.86771 L -655.01145,205.73894 C -658.30995,201.81812 -661.00865,198.56753 -661.00865,198.51539 C -661.00865,198.46326 -662.18855,194.11787 -663.63065,188.85897 L -666.25255,179.29733 L -668.27425,176.5498 C -669.38625,175.03865 -670.42435,173.7163 -670.58125,173.61124 C -670.73805,173.50617 -674.17735,172.88293 -678.22395,172.22626 L -685.58145,171.0323 L -689.20105,172.94645 L -692.82075,174.86059 L -697.58185,186.01272 L -702.34305,197.16484 L -707.31645,199.51281 C -710.05185,200.80419 -712.40845,201.73886 -712.55335,201.58985 C -712.69835,201.44084 -714.06155,198.69955 -715.58285,195.49809 L -718.34885,189.67726 L -717.73895,175.14427 L -717.12895,160.61127 L -712.22145,147.6276 C -709.52225,140.48658 -704.91555,128.29393 -701.98425,120.53281 C -699.05295,112.77171 -696.40875,105.24003 -696.10825,103.79575 C -695.80775,102.35148 -695.49285,101.1008 -695.40855,101.01648 C -695.32425,100.93216 -681.23945,99.841223 -664.10905,98.592181 C -646.97863,97.343138 -632.85345,96.212559 -632.71975,96.079783 C -632.58605,95.947007 -633.33815,89.170871 -634.39109,81.021705 C -635.44402,72.872538 -636.30747,65.927225 -636.30987,65.587677 C -636.3134,65.088002 -636.00294,64.970316 -634.68128,64.970316 H -633.04833 L -633.26366,63.294621 C -633.38209,62.372989 -633.58111,60.723417 -633.70593,59.628905 L -633.93289,57.638884 L -632.56592,57.425891 C -631.81408,57.308745 -627.15082,56.726886 -622.20312,56.132871 C -614.9621,55.263525 -608.39066,54.821569 -588.51556,53.867246 C -573.39034,53.140992 -563.74471,52.809691 -563.61959,53.012136 C -563.50725,53.193904 -562.65577,56.951042 -561.7274,61.361331 C -559.16384,73.539726 -558.67252,75.553649 -558.26499,75.553649 C -558.05879,75.553649 -550.25457,71.559314 -540.92229,66.677348 C -531.59001,61.795383 -519.29607,55.366008 -513.60243,52.389848 C -507.90879,49.413689 -503.1066,46.978649 -502.9309,46.978649 C -502.7552,46.978649 -502.59754,48.367712 -502.58054,50.065455 C -502.56355,51.763198 -502.44448,53.938495 -502.31596,54.899449 L -502.08228,56.646638 L -495.04835,59.397366 C -491.17968,60.910266 -487.82975,62.148093 -487.60404,62.148093 C -487.37834,62.148093 -486.68147,61.036843 -486.05544,59.678649 C -485.4294,58.320455 -484.82048,57.209205 -484.70227,57.209205 C -484.19688,57.209205 -472.41031,61.930375 -472.02827,62.28584 C -471.7969,62.501121 -470.47111,65.582583 -469.08209,69.133534 L -466.55659,75.589807 L -473.47152,91.238249 C -477.27473,99.844892 -480.38645,107.04202 -480.38645,107.23187 C -480.38645,107.42171 -479.35181,108.01677 -478.08725,108.55421 C -476.22311,109.34648 -475.82651,109.65259 -475.99134,110.17192 C -476.10315,110.52421 -477.29655,113.46283 -478.64332,116.7022 C -479.9901,119.94156 -481.08896,122.84301 -481.08525,123.14988 C -481.08029,123.55918 -475.0892,126.049 -458.59566,132.49626 C -446.23011,137.3299 -435.7665,141.4574 -435.34319,141.66848 C -434.59087,142.04362 -434.81867,142.62419 -445.4601,167.45226 C -451.44771,181.42226 -456.50024,192.85226 -456.68794,192.85226 C -456.87564,192.85226 -458.15155,192.46307 -459.52329,191.9874 C -460.89504,191.51173 -462.10259,191.20775 -462.20673,191.3119 C -462.31088,191.41604 -463.82001,202.28273 -465.56035,215.46009 C -467.30069,228.63745 -468.8028,239.84671 -468.89836,240.36955 C -469.05998,241.25377 -468.81268,241.47556 -465.3582,243.54455 L -461.64428,245.76893 L -461.75495,249.59961 L -461.86562,253.4303 L -453.39895,255.92805 C -448.74228,257.30181 -444.82497,258.58461 -444.69381,258.77872 C -444.56264,258.97282 -444.35084,260.41128 -444.22312,261.97528 C -444.0059,264.6354 -444.13128,265.42227 -446.16575,274.16754 C -448.25435,283.14548 -448.51315,283.94976 -452.69316,294.45226 L -457.04575,305.38837 L -457.26265,312.24996 C -457.38194,316.02384 -457.5443,319.17631 -457.62345,319.25547 C -457.70261,319.33462 -463.34372,316.36597 -470.15926,312.65846 C -476.97481,308.95095 -482.73879,305.91633 -482.96811,305.91485 C -483.19743,305.91338 -485.86834,307.04254 -488.90346,308.4241 L -494.42187,310.93603 L -496.91104,317.51081 L -499.40022,324.08559 L -499.64789,336.35666 C -499.78411,343.10575 -499.9907,348.67264 -500.10698,348.72754 C -500.22326,348.78243 -515.63777,348.07194 -534.36145,347.14867 Z"
       id="path41" /><path
       style="fill:#444;fill-opacity:1;stroke:#00f700;stroke-width:0.79375;stroke-dasharray:none;stroke-opacity:1"
       d="M -451.35712,379.27732 L -477.19122,370.56644 L -477.28629,358.74838 L -477.38135,346.93033 L -480.20358,346.69336 C -481.7558,346.56303 -486.01856,346.34674 -489.67638,346.21272 L -496.32696,345.96904 L -496.0673,333.64086 L -495.80764,321.31267 L -493.47367,315.0715 L -491.13969,308.83033 L -488.49385,307.51692 C -487.03865,306.79454 -484.57216,305.63356 -483.01277,304.93696 L -480.17751,303.67042 L -467.49054,310.56868 C -460.51271,314.36272 -454.62908,317.46839 -454.41581,317.47016 C -453.96334,317.47392 -453.5734,312.50632 -453.57068,306.70367 L -453.56886,302.81313 L -449.31454,292.23978 C -445.19615,282.00423 -444.98366,281.34407 -442.66353,271.57604 L -440.26682,261.48564 L -440.67633,258.43241 C -440.90156,256.75314 -441.23545,255.24425 -441.41832,255.07933 C -441.60118,254.91441 -445.48316,253.70186 -450.04492,252.38478 L -458.33904,249.99009 L -458.21871,246.24909 L -458.09838,242.5081 L -461.56626,240.35983 C -463.75,239.00705 -465.06915,237.962 -465.12868,237.53761 C -465.26092,236.59503 -459.01001,189.79972 -458.71207,189.50178 C -458.57844,189.36815 -457.48562,189.61151 -456.28357,190.04256 C -455.08152,190.47362 -453.8599,190.82212 -453.56886,190.81701 C -452.96912,190.80648 -430.81973,139.57041 -431.09961,138.84106 C -431.18965,138.60642 -441.49575,134.39664 -454.00205,129.48597 C -466.50835,124.5753 -476.92815,120.44168 -477.15716,120.30015 C -477.4518,120.11805 -476.75928,118.09072 -474.78841,113.36574 C -473.07501,109.25802 -472.12123,106.5396 -472.30978,106.3013 C -472.47835,106.08825 -473.57179,105.5344 -474.73964,105.07053 C -475.9075,104.60666 -476.79501,104.06659 -476.71189,103.87039 C -476.62876,103.67419 -473.53082,96.687404 -469.82758,88.344214 C -466.12433,80.001024 -463.09428,72.940488 -463.09413,72.654148 C -463.09398,72.367808 -464.28201,69.113428 -465.73421,65.422208 L -468.37456,58.710888 L -475.17101,56.027028 C -478.90906,54.550908 -482.12622,53.408548 -482.32024,53.488448 C -482.51427,53.568358 -483.18148,54.737038 -483.80293,56.085518 L -484.93284,58.537298 L -486.62515,57.873398 C -487.55592,57.508248 -490.63668,56.301658 -493.47128,55.192088 L -498.62509,53.174698 L -498.84902,50.298348 C -498.97219,48.716358 -499.07391,46.518548 -499.07507,45.414348 C -499.07624,44.310138 -499.24187,43.304908 -499.44315,43.180508 C -499.64443,43.056118 -507.04288,46.713178 -515.88413,51.307318 C -524.72539,55.901468 -532.07665,59.526068 -532.22026,59.361988 C -532.60059,58.927448 -540.40484,30.952888 -540.20225,30.750298 C -540.10824,30.656288 -537.84133,31.457168 -535.16467,32.530018 L -530.29802,34.480658 L -524.3008,31.383888 C -504.52278,21.171138 -500.82722,19.357938 -500.68844,19.798628 C -500.60885,20.051338 -500.35061,24.068108 -500.11457,28.724778 C -499.50841,40.683228 -499.61623,40.165058 -497.55845,41.009548 C -496.57594,41.412758 -495.74258,41.571838 -495.57404,41.388338 C -495.41423,41.214348 -491.15684,32.097938 -486.11318,21.129648 L -476.94288,1.1873079 L -472.2794,-5.1522921 C -467.25081,-11.988222 -467.06055,-12.227612 -466.8389,-11.997542 C -466.7579,-11.913462 -466.02464,-8.1934221 -465.20943,-3.7307821 C -464.39422,0.73185787 -463.62071,4.4979379 -463.49051,4.6382779 C -463.36031,4.7786279 -456.20734,7.2867479 -447.59501,10.211888 C -421.89594,18.940458 -393.59765,29.922668 -363.08135,43.010568 L -336.62302,54.358078 L -312.63413,62.128898 C -288.89634,69.818388 -288.41814,69.991878 -266.94941,78.703144 C -255.0167,83.545024 -245.14329,87.615654 -245.00849,87.748994 C -244.87369,87.882334 -248.84244,91.813944 -253.82793,96.485904 C -258.81342,101.15785 -265.84395,108.06348 -269.45131,111.83174 L -276.01016,118.6831 L -281.31869,147.49864 L -286.62723,176.31418 L -288.84612,180.48336 C -291.03471,184.59563 -291.16386,184.75129 -298.30523,191.88449 L -305.54545,199.11644 L -308.83251,210.05255 L -312.11957,220.98866 L -313.5787,266.67338 C -315.0175,311.7219 -315.03224,312.59597 -314.63718,329.43855 L -314.23655,346.51899 L -320.12856,356.42605 L -326.02057,366.3331 L -327.28545,372.50671 L -328.55033,378.68033 L -330.29362,378.93892 C -331.25243,379.08115 -340.53003,379.61084 -350.91052,380.116 L -369.78413,381.03447 L -396.57514,384.5317 C -411.3102,386.45518 -423.85145,388.01977 -424.44459,388.00857 C -425.03773,387.99737 -437.14837,384.0683 -451.35712,379.27732 Z"
       id="path40" /><path
       style="fill:#444;fill-opacity:1;stroke:#00f700;stroke-width:0.79375;stroke-dasharray:none;stroke-opacity:1"
       d="M -426.57506,649.81187 C -473.33575,648.00306 -513.93676,646.51401 -516.79953,646.50285 L -522.00456,646.48257 L -521.80631,642.51382 C -521.48884,636.15824 -518.82645,553.71378 -518.82645,550.23843 V 547.08269 L -521.73686,546.86609 C -523.33759,546.74697 -530.91791,546.31469 -538.582,545.90548 C -546.2461,545.49628 -552.57597,545.10562 -552.64837,545.03736 C -552.80382,544.89081 -548.40249,444.58386 -548.2314,444.37411 C -548.16717,444.29536 -537.43697,444.89471 -524.3865,445.70601 C -511.33604,446.5173 -500.00083,447.17705 -499.19714,447.17211 L -497.73589,447.16312 L -497.51014,443.72354 C -497.38598,441.83177 -496.81101,430.69059 -496.23243,418.96537 C -495.65386,407.24015 -495.14301,397.61981 -495.09721,397.58684 C -495.05142,397.55387 -494.02176,397.00481 -492.80909,396.36669 C -491.48949,395.67232 -490.60586,394.97835 -490.60829,394.63828 C -490.61877,393.17411 -489.44708,367.59872 -489.36519,367.5042 C -489.09925,367.19725 -476.40706,371.23852 -452.43073,379.26434 L -425.72252,388.20464 L -398.9849,384.66763 L -372.24728,381.13061 L -350.92445,380.81032 C -336.38692,380.59196 -329.53041,380.60526 -329.37784,380.85213 C -329.25476,381.05129 -328.94715,382.95406 -328.69427,385.08052 L -328.23448,388.9468 L -329.77977,390.90283 C -330.62968,391.97864 -331.62272,393.23551 -331.98653,393.69587 C -332.55498,394.41518 -332.82328,396.57954 -333.89432,409.08575 L -335.14062,423.63861 L -333.89353,430.90295 L -332.64643,438.16729 L -333.0886,444.16451 C -333.49519,449.67917 -333.81486,451.39655 -337.06139,465.50757 L -340.592,480.8534 L -341.36095,492.81112 L -342.1299,504.76884 L -343.95942,509.16572 L -345.78895,513.5626 L -353.90284,517.20103 C -360.41145,520.11962 -362.06973,521.00186 -362.28465,521.66032 C -362.432,522.11179 -363.67259,529.46618 -365.04151,538.0034 L -367.53045,553.52562 L -371.51379,563.57979 L -375.49713,573.63396 L -374.45854,585.78248 L -373.41995,597.93101 L -370.4815,603.77415 L -367.54304,609.61729 L -359.12186,618.26035 C -352.01566,625.55378 -350.09786,627.75724 -346.8402,632.37146 L -342.97971,637.83951 L -341.84219,644.89507 C -340.53924,652.97671 -340.51953,653.20016 -341.11464,653.14297 C -341.35718,653.11966 -379.81436,651.62067 -426.57506,649.81187 Z"
       id="path39" /><path
       style="fill:#444;fill-opacity:1;stroke:#00f700;stroke-width:0.79375;stroke-dasharray:none;stroke-opacity:1"
       d="M -565.45713,647.8102 C -570.11379,647.66395 -578.13067,647.29893 -583.27241,646.99905 C -588.85486,646.67346 -601.71664,646.37308 -615.19879,646.25344 C -627.61657,646.14325 -642.78817,645.95205 -648.91344,645.82856 L -660.05034,645.60404 L -662.28564,631.91709 L -664.52094,618.23015 L -662.88714,614.30801 C -661.41164,610.766 -660.99554,609.05549 -658.59334,596.65896 L -655.93344,582.93206 L -655.59294,568.72109 C -655.40574,560.90505 -654.28454,505.29842 -653.10154,445.1508 C -651.91844,385.00317 -650.90954,335.75045 -650.85934,335.70031 C -650.80924,335.65017 -636.92287,337.43531 -620.0008,339.66727 L -589.23341,343.72539 L -579.63832,343.7263 C -573.35814,343.72689 -558.83053,344.27253 -537.58768,345.30568 C -508.92964,346.69947 -481.98147,347.95595 -480.70227,347.95802 C -480.35874,347.95857 -480.26129,350.44031 -480.26129,359.18882 C -480.26129,365.36537 -480.34501,370.50263 -480.44733,370.60495 C -480.54965,370.70727 -482.97059,370.11618 -485.82719,369.29141 C -488.6838,368.46664 -491.13455,367.89585 -491.27331,368.02299 C -491.41207,368.15013 -491.79957,374.48597 -492.13442,382.10263 L -492.74322,395.95111 L -494.94395,397.18183 C -497.13775,398.40867 -497.1453,398.41838 -497.34061,400.26133 C -497.44836,401.27816 -498.03083,412.34949 -498.63497,424.86428 C -499.23911,437.37908 -499.78441,447.67182 -499.84674,447.73705 C -499.90907,447.80228 -511.20441,447.14121 -524.94749,446.26801 C -538.69057,445.39481 -550.0417,444.78582 -550.17223,444.91469 C -550.49292,445.23132 -555.0096,546.67875 -554.71787,547.0127 C -554.59118,547.15773 -546.95444,547.68866 -537.74733,548.19255 C -528.54022,548.69645 -520.9532,549.16088 -520.88728,549.22464 C -520.69355,549.41201 -524.0209,647.59978 -524.22801,647.80725 C -524.52377,648.10354 -556.04512,648.10579 -565.45713,647.8102 Z"
       id="path38" /></g></svg>
