<?xml version="1.0" encoding="UTF-8" standalone="no"?>
<svg
   viewBox="0 0 1200 800"
   role="img"
   aria-label="Isometric modern house, blueprint line drawing"
   version="1.1"
   id="svg56"
   sodipodi:docname="blueprint.svg"
   inkscape:version="1.4.2 (ebf0e940, 2025-05-08)"
   xmlns:inkscape="http://www.inkscape.org/namespaces/inkscape"
   xmlns:sodipodi="http://sodipodi.sourceforge.net/DTD/sodipodi-0.dtd"
   xmlns="http://www.w3.org/2000/svg"
   xmlns:svg="http://www.w3.org/2000/svg">
  <sodipodi:namedview
     id="namedview56"
     pagecolor="#ffffff"
     bordercolor="#000000"
     borderopacity="0.25"
     inkscape:showpageshadow="2"
     inkscape:pageopacity="0.0"
     inkscape:pagecheckerboard="0"
     inkscape:deskcolor="#d1d1d1"
     inkscape:zoom="0.69333333"
     inkscape:cx="600"
     inkscape:cy="415.38462"
     inkscape:window-width="2672"
     inkscape:window-height="1281"
     inkscape:window-x="2296"
     inkscape:window-y="30"
     inkscape:window-maximized="0"
     inkscape:current-layer="svg56" />
  <defs
     id="defs2">
    <!-- White glow to mimic blueprint pen bloom -->
    <filter
       id="glow"
       x="-0.14400001"
       y="-0.14400001"
       width="1.288"
       height="1.288">
      <feGaussianBlur
         in="SourceGraphic"
         stdDeviation="1.2"
         result="blur1"
         id="feGaussianBlur1" />
      <feMerge
         id="feMerge2">
        <feMergeNode
           in="blur1"
           id="feMergeNode1" />
        <feMergeNode
           in="SourceGraphic"
           id="feMergeNode2" />
      </feMerge>
    </filter>
    <style
       id="style2">
            .edge {
              stroke: #fff;
              stroke-width: 3.2;
              fill: none;
              stroke-linecap: round;
              stroke-linejoin: round;
              filter: url(#glow);
            }

            .edge-thin {
              stroke: #fff;
              stroke-width: 2;
              fill: none;
              stroke-linecap: round;
              stroke-linejoin: round;
              filter: url(#glow);
            }

            .detail {
              stroke: rgba(255, 255, 255, 0.85);
              stroke-width: 1.6;
              fill: none;
              stroke-linecap: round;
              stroke-linejoin: round;
              filter: url(#glow);
            }

            .faint {
              stroke: rgba(255, 255, 255, 0.55);
              stroke-width: 1.2;
              fill: none;
              stroke-linecap: round;
              stroke-linejoin: round;
              filter: url(#glow);
            }

            .construct {
              stroke: rgba(255, 255, 255, 0.35);
              stroke-width: 1;
              stroke-dasharray: 8 10;
              fill: none;
            }

            .tick {
              stroke: rgba(255, 255, 255, 0.4);
              stroke-width: 1;
            }

            .dot {
              fill: #fff;
              opacity: 0.85;
            }
          </style>
  </defs>
  <!-- Construction frame (light isometric guide box) -->
  <path
     class="construct"
     d="m 135.28846,24.423077 405,-184.999997 L 1075.2885,59.423077 670.28846,244.42308 Z"
     id="path2" />
  <path
     class="construct"
     d="m 1250.0962,488.17308 v 220 l 405,-185 v -220"
     id="path3" />
  <path
     class="construct"
     d="m -264.23077,651.82692 v 220 l 535,219.99998"
     id="path4" />
  <!-- ===== Main massing: two interlocking volumes ===== -->
  <!-- Upper big roof slab -->
  <path
     class="edge"
     d="m 829.13462,90.576923 339.99998,-155 450,184.999997 -340,155 z"
     id="path5" />
  <!-- Roof thickness lip -->
  <path
     class="detail"
     d="m -275.67308,598.26923 v 15 l 450,185 v -15"
     id="path6" />
  <path
     class="detail"
     d="M620,455 960,300 960,285"
     id="path7" />
  <!-- Left cantilever slab underside -->
  <path
     class="edge-thin"
     d="m -223.75,186.34615 -50,25 v 220 l 40,-20 v -220 z"
     id="path8" />
  <path
     class="detail"
     d="m 1062.8846,1011.3462 440,185 V 976.34615 l 20,-5"
     id="path9" />
  <!-- Right lower terrace roof (rectangular inset) -->
  <path
     class="edge"
     d="M620,455  865,350  1020,415  775,520 Z"
     id="path10" />
  <path
     class="detail"
     d="M775,520 775,535 1020,430 1020,415"
     id="path11" />
  <!-- Posts supporting terrace -->
  <g
     class="edge-thin"
     id="g15">
    <path
       d="M980,430 980,630"
       id="path12" />
    <path
       d="M940,445 940,645"
       id="path13" />
    <path
       d="M900,460 900,660"
       id="path14" />
    <path
       d="M860,475 860,680"
       id="path15" />
  </g>
  <!-- Small caps on posts -->
  <g
     id="g18">
    <circle
       class="dot"
       cx="980"
       cy="430"
       r="4"
       id="circle15" />
    <circle
       class="dot"
       cx="940"
       cy="445"
       r="4"
       id="circle16" />
    <circle
       class="dot"
       cx="900"
       cy="460"
       r="4"
       id="circle17" />
    <circle
       class="dot"
       cx="860"
       cy="475"
       r="4"
       id="circle18" />
  </g>
  <!-- Vertical core walls and frames -->
  <path
     class="edge"
     d="M 1652.3077,-231.73077 V -1.7307692 l -340,174.9999992 V -76.730769"
     id="path18" />
  <path
     class="edge"
     d="M620,440 620,675 960,520 960,285"
     id="path19" />
  <path
     class="edge-thin"
     d="M510,330 620,380 620,440"
     id="path20" />
  <!-- Left façade window bands -->
  <g
     class="detail"
     id="g26"
     transform="translate(-403.84615,-168.75)">
    <path
       d="M 210,320 430,215 V 350 L 210,455 Z"
       id="path21" />
    <path
       d="M 210,455 430,350"
       id="path22" />
    <path
       d="M 210,387 430,282"
       id="path23" />
    <!-- lower window row -->
    <path
       d="M 240,500 455,395 V 520 L 240,625 Z"
       id="path24" />
    <path
       d="M 240,625 455,520"
       id="path25" />
    <path
       d="M 240,562 455,457"
       id="path26" />
  </g>
  <!-- Entrance block projecting forward -->
  <path
     class="edge"
     d="m 609.42308,1048.9423 170,-69.99999 v 184.99999 l -170,70 z"
     id="path27" />
  <!-- Entrance roof curb -->
  <path
     class="detail"
     d="M540,420 670,365 670,505 540,560 Z"
     id="path28" />
  <!-- Door and sidelights -->
  <g
     class="detail"
     id="g32">
    <path
       d="M560,535 560,460 615,437 615,512 Z"
       id="path29" />
    <path
       d="M560,497 615,472"
       id="path30" />
    <path
       d="M615,512 640,500 640,425 615,437"
       id="path31" />
    <path
       d="M560,535 585,523 585,448 560,460"
       id="path32" />
  </g>
  <!-- Stairs to entrance -->
  <g
     class="edge-thin"
     id="g37">
    <path
       d="M520,595 600,560"
       id="path33" />
    <path
       d="M535,615 615,580"
       id="path34" />
    <path
       d="M550,635 630,600"
       id="path35" />
    <path
       d="M520,595 535,615 550,635"
       id="path36" />
    <path
       d="M600,560 615,580 630,600"
       id="path37" />
  </g>
  <!-- Roof details: skylight and rooftop unit -->
  <g
     class="detail"
     id="g42"
     transform="translate(-584.13462,-328.84615)">
    <!-- Skylight -->
    <path
       d="m 315,210 115,-50 90,40 -115,50 z"
       id="path38" />
    <path
       class="faint"
       d="m 405,250 v 15 l 115,-50 v -15"
       id="path39" />
    <!-- Rooftop HVAC box -->
    <path
       d="m 660,190 85,-35 70,30 -85,35 z"
       id="path40" />
    <path
       d="m 730,220 v 15 l 85,-35 v -15"
       id="path41" />
    <circle
       class="faint"
       cx="770"
       cy="187"
       r="10"
       id="circle41" />
    <circle
       class="faint"
       cx="790"
       cy="195"
       r="10"
       id="circle42" />
    <path
       class="faint"
       d="m 745,155 v 15 l 70,30"
       id="path42" />
  </g>
  <!-- Terrace parapet (inner rectangular opening) -->
  <g
     class="edge-thin"
     id="g45"
     transform="translate(424.03846,356.25)">
    <path
       d="m 680,410 155,-65 95,40 -155,65 z"
       id="path43" />
    <path
       d="m 680,410 v 20 l 95,40 v -20"
       id="path44" />
    <path
       d="M 775,470 930,405 V 385"
       id="path45" />
  </g>
  <!-- Small roof studs / vents -->
  <g
     id="g49">
    <circle
       class="dot"
       cx="265"
       cy="245"
       r="3.6"
       id="circle45" />
    <circle
       class="dot"
       cx="355"
       cy="210"
       r="3.6"
       id="circle46" />
    <circle
       class="dot"
       cx="560"
       cy="180"
       r="3.6"
       id="circle47" />
    <circle
       class="dot"
       cx="900"
       cy="405"
       r="4"
       id="circle48" />
    <circle
       class="dot"
       cx="940"
       cy="390"
       r="4"
       id="circle49" />
  </g>
  <!-- Dimension / extension lines around drawing (light, dashed and ticks) -->
  <g
     id="g55"
     transform="translate(-646.15385,-458.65385)">
    <path
       class="construct"
       d="m 140,225 30,30"
       id="path49" />
    <path
       class="construct"
       d="m 100,240 70,30"
       id="path50" />
    <path
       class="tick"
       d="m 122,232 10,8"
       id="path51" />
    <path
       class="tick"
       d="m 88,246 10,8"
       id="path52" />
    <path
       class="construct"
       d="m 980,285 35,15"
       id="path53" />
    <path
       class="construct"
       d="m 1015,300 30,-10"
       id="path54" />
    <path
       class="tick"
       d="m 1000,292 8,6"
       id="path55" />
  </g>
  <!-- Ground shadow hint (thin) -->
  <path
     class="faint"
     d="M200,660 430,735 935,520"
     id="path56" />
</svg>
